<svg width="179" height="54" viewBox="0 0 179 54" fill="none" xmlns="http://www.w3.org/2000/svg">
<path d="M1.548 27.436C1.548 24.988 2.1 22.792 3.204 20.848C4.308 18.88 5.808 17.344 7.704 16.24C9.624 15.136 11.748 14.584 14.076 14.584C16.812 14.584 19.2 15.244 21.24 16.564C23.28 17.884 24.768 19.756 25.704 22.18H21.78C21.084 20.668 20.076 19.504 18.756 18.688C17.46 17.872 15.9 17.464 14.076 17.464C12.324 17.464 10.752 17.872 9.36 18.688C7.968 19.504 6.876 20.668 6.084 22.18C5.292 23.668 4.896 25.42 4.896 27.436C4.896 29.428 5.292 31.18 6.084 32.692C6.876 34.18 7.968 35.332 9.36 36.148C10.752 36.964 12.324 37.372 14.076 37.372C15.9 37.372 17.46 36.976 18.756 36.184C20.076 35.368 21.084 34.204 21.78 32.692H25.704C24.768 35.092 23.28 36.952 21.24 38.272C19.2 39.568 16.812 40.216 14.076 40.216C11.748 40.216 9.624 39.676 7.704 38.596C5.808 37.492 4.308 35.968 3.204 34.024C2.1 32.08 1.548 29.884 1.548 27.436ZM39.1846 40.324C37.3366 40.324 35.6566 39.904 34.1446 39.064C32.6566 38.224 31.4806 37.036 30.6166 35.5C29.7766 33.94 29.3566 32.14 29.3566 30.1C29.3566 28.084 29.7886 26.308 30.6526 24.772C31.5406 23.212 32.7406 22.024 34.2526 21.208C35.7646 20.368 37.4566 19.948 39.3286 19.948C41.2006 19.948 42.8926 20.368 44.4046 21.208C45.9166 22.024 47.1046 23.2 47.9686 24.736C48.8566 26.272 49.3006 28.06 49.3006 30.1C49.3006 32.14 48.8446 33.94 47.9326 35.5C47.0446 37.036 45.8326 38.224 44.2966 39.064C42.7606 39.904 41.0566 40.324 39.1846 40.324ZM39.1846 37.444C40.3606 37.444 41.4646 37.168 42.4966 36.616C43.5286 36.064 44.3566 35.236 44.9806 34.132C45.6286 33.028 45.9526 31.684 45.9526 30.1C45.9526 28.516 45.6406 27.172 45.0166 26.068C44.3926 24.964 43.5766 24.148 42.5686 23.62C41.5606 23.068 40.4686 22.792 39.2926 22.792C38.0926 22.792 36.9886 23.068 35.9806 23.62C34.9966 24.148 34.2046 24.964 33.6046 26.068C33.0046 27.172 32.7046 28.516 32.7046 30.1C32.7046 31.708 32.9926 33.064 33.5686 34.168C34.1686 35.272 34.9606 36.1 35.9446 36.652C36.9286 37.18 38.0086 37.444 39.1846 37.444ZM62.2119 40.324C60.3639 40.324 58.6839 39.904 57.1719 39.064C55.6839 38.224 54.5079 37.036 53.6439 35.5C52.8039 33.94 52.3839 32.14 52.3839 30.1C52.3839 28.084 52.8159 26.308 53.6799 24.772C54.5679 23.212 55.7679 22.024 57.2799 21.208C58.7919 20.368 60.4839 19.948 62.3559 19.948C64.2279 19.948 65.9199 20.368 67.4319 21.208C68.9439 22.024 70.1319 23.2 70.9959 24.736C71.8839 26.272 72.3279 28.06 72.3279 30.1C72.3279 32.14 71.8719 33.94 70.9599 35.5C70.0719 37.036 68.8599 38.224 67.3239 39.064C65.7879 39.904 64.0839 40.324 62.2119 40.324ZM62.2119 37.444C63.3879 37.444 64.4919 37.168 65.5239 36.616C66.5559 36.064 67.3839 35.236 68.0079 34.132C68.6559 33.028 68.9799 31.684 68.9799 30.1C68.9799 28.516 68.6679 27.172 68.0439 26.068C67.4199 24.964 66.6039 24.148 65.5959 23.62C64.5879 23.068 63.4959 22.792 62.3199 22.792C61.1199 22.792 60.0159 23.068 59.0079 23.62C58.0239 24.148 57.2319 24.964 56.6319 26.068C56.0319 27.172 55.7319 28.516 55.7319 30.1C55.7319 31.708 56.0199 33.064 56.5959 34.168C57.1959 35.272 57.9879 36.1 58.9719 36.652C59.9559 37.18 61.0359 37.444 62.2119 37.444ZM79.9113 13.36V40H76.6353V13.36H79.9113ZM88.7707 13.36V40H85.4947V13.36H88.7707ZM116.825 23.944C117.497 22.768 118.481 21.808 119.777 21.064C121.073 20.32 122.549 19.948 124.205 19.948C125.981 19.948 127.577 20.368 128.993 21.208C130.409 22.048 131.525 23.236 132.341 24.772C133.157 26.284 133.565 28.048 133.565 30.064C133.565 32.056 133.157 33.832 132.341 35.392C131.525 36.952 130.397 38.164 128.957 39.028C127.541 39.892 125.957 40.324 124.205 40.324C122.501 40.324 121.001 39.952 119.705 39.208C118.433 38.464 117.473 37.516 116.825 36.364V40H113.549V13.36H116.825V23.944ZM130.217 30.064C130.217 28.576 129.917 27.28 129.317 26.176C128.717 25.072 127.901 24.232 126.869 23.656C125.861 23.08 124.745 22.792 123.521 22.792C122.321 22.792 121.205 23.092 120.173 23.692C119.165 24.268 118.349 25.12 117.725 26.248C117.125 27.352 116.825 28.636 116.825 30.1C116.825 31.588 117.125 32.896 117.725 34.024C118.349 35.128 119.165 35.98 120.173 36.58C121.205 37.156 122.321 37.444 123.521 37.444C124.745 37.444 125.861 37.156 126.869 36.58C127.901 35.98 128.717 35.128 129.317 34.024C129.917 32.896 130.217 31.576 130.217 30.064Z" fill="white"/>
<path d="M138.921 40.216C138.297 40.216 137.769 40 137.337 39.568C136.905 39.136 136.689 38.608 136.689 37.984C136.689 37.36 136.905 36.832 137.337 36.4C137.769 35.968 138.297 35.752 138.921 35.752C139.521 35.752 140.025 35.968 140.433 36.4C140.865 36.832 141.081 37.36 141.081 37.984C141.081 38.608 140.865 39.136 140.433 39.568C140.025 40 139.521 40.216 138.921 40.216Z" fill="#39DEDB"/>
<path d="M145.774 35.032C145.774 34.024 145.978 33.142 146.386 32.386C146.794 31.618 147.352 31.024 148.06 30.604C148.78 30.184 149.584 29.974 150.472 29.974C151.24 29.974 151.954 30.154 152.614 30.514C153.274 30.862 153.778 31.324 154.126 31.9V26.68H155.782V40H154.126V38.146C153.802 38.734 153.322 39.22 152.686 39.604C152.05 39.976 151.306 40.162 150.454 40.162C149.578 40.162 148.78 39.946 148.06 39.514C147.352 39.082 146.794 38.476 146.386 37.696C145.978 36.916 145.774 36.028 145.774 35.032ZM154.126 35.05C154.126 34.306 153.976 33.658 153.676 33.106C153.376 32.554 152.968 32.134 152.452 31.846C151.948 31.546 151.39 31.396 150.778 31.396C150.166 31.396 149.608 31.54 149.104 31.828C148.6 32.116 148.198 32.536 147.898 33.088C147.598 33.64 147.448 34.288 147.448 35.032C147.448 35.788 147.598 36.448 147.898 37.012C148.198 37.564 148.6 37.99 149.104 38.29C149.608 38.578 150.166 38.722 150.778 38.722C151.39 38.722 151.948 38.578 152.452 38.29C152.968 37.99 153.376 37.564 153.676 37.012C153.976 36.448 154.126 35.794 154.126 35.05ZM167.55 34.69C167.55 35.002 167.532 35.332 167.496 35.68H159.612C159.672 36.652 160.002 37.414 160.602 37.966C161.214 38.506 161.952 38.776 162.816 38.776C163.524 38.776 164.112 38.614 164.58 38.29C165.06 37.954 165.396 37.51 165.588 36.958H167.352C167.088 37.906 166.56 38.68 165.768 39.28C164.976 39.868 163.992 40.162 162.816 40.162C161.88 40.162 161.04 39.952 160.296 39.532C159.564 39.112 158.988 38.518 158.568 37.75C158.148 36.97 157.938 36.07 157.938 35.05C157.938 34.03 158.142 33.136 158.55 32.368C158.958 31.6 159.528 31.012 160.26 30.604C161.004 30.184 161.856 29.974 162.816 29.974C163.752 29.974 164.58 30.178 165.3 30.586C166.02 30.994 166.572 31.558 166.956 32.278C167.352 32.986 167.55 33.79 167.55 34.69ZM165.858 34.348C165.858 33.724 165.72 33.19 165.444 32.746C165.168 32.29 164.79 31.948 164.31 31.72C163.842 31.48 163.32 31.36 162.744 31.36C161.916 31.36 161.208 31.624 160.62 32.152C160.044 32.68 159.714 33.412 159.63 34.348H165.858ZM173.384 38.488L176.444 30.136H178.19L174.32 40H172.412L168.542 30.136H170.306L173.384 38.488Z" fill="white"/>
<path fill-rule="evenodd" clip-rule="evenodd" d="M111.199 37.8906L105.5 28C106.848 33.2774 105.173 33.9041 100.921 35.4959C98.9693 36.2264 96.4749 37.1602 93.4805 38.8398L109.19 38.9453C110.883 38.9453 111.305 38.3125 111.199 37.8906Z" fill="#39DEDB"/>
<path d="M97.0235 17.5726C97.0301 18.0453 97.3659 18.5212 98.0663 18.5212H99.3828V22.2943L90.6605 37.9079C90.6134 38.0826 90.6284 38.2349 90.69 38.372C90.7575 38.522 90.8916 38.6769 91.1132 38.8214C91.5608 39.1132 92.3102 39.3254 93.3238 39.3672H109.028C110.041 39.3257 110.783 39.1117 111.224 38.8198C111.442 38.6754 111.573 38.5207 111.639 38.3711C111.699 38.2342 111.713 38.0822 111.666 37.9086L102.969 22.4334V18.5212H104.285C104.986 18.5212 105.321 18.0453 105.328 17.5726C105.331 17.3317 105.248 17.0992 105.086 16.9287C104.927 16.7621 104.671 16.6328 104.285 16.6328H103.5C103 16.6328 103.031 16 103.5 16H104.285C104.823 16 105.252 16.1858 105.544 16.492C105.832 16.7942 105.966 17.192 105.961 17.5814C105.95 18.3692 105.362 19.154 104.285 19.154H103.602V22.2678L112.252 37.6596L112.262 37.6918C112.361 38.0134 112.347 38.3324 112.219 38.6257C112.092 38.914 111.864 39.1548 111.573 39.3475C110.996 39.7294 110.121 39.9566 109.047 39.9997L109.041 40H93.3109L93.3045 39.9997C92.2308 39.9562 91.3502 39.7313 90.7677 39.3515C90.4738 39.1599 90.2426 38.9201 90.1129 38.6314C89.9808 38.3376 89.9648 38.0169 90.0641 37.6925L90.074 37.6603L98.75 22.1295V19.154H98.0663C96.9897 19.154 96.4017 18.3692 96.3907 17.5814C96.3853 17.192 96.5197 16.7942 96.808 16.492C97.1 16.1858 97.5283 16 98.0663 16H99C99.5 16 99.5 16.6328 99 16.6328H98.0663C97.6805 16.6328 97.4248 16.7621 97.2659 16.9287C97.1033 17.0992 97.0201 17.3317 97.0235 17.5726Z" fill="white"/>
</svg>
