<svg width="179" height="54" viewBox="0 0 179 54" fill="none" xmlns="http://www.w3.org/2000/svg">
<path d="M1.548 27.436C1.548 24.988 2.1 22.792 3.204 20.848C4.308 18.88 5.808 17.344 7.704 16.24C9.624 15.136 11.748 14.584 14.076 14.584C16.812 14.584 19.2 15.244 21.24 16.564C23.28 17.884 24.768 19.756 25.704 22.18H21.78C21.084 20.668 20.076 19.504 18.756 18.688C17.46 17.872 15.9 17.464 14.076 17.464C12.324 17.464 10.752 17.872 9.36 18.688C7.968 19.504 6.876 20.668 6.084 22.18C5.292 23.668 4.896 25.42 4.896 27.436C4.896 29.428 5.292 31.18 6.084 32.692C6.876 34.18 7.968 35.332 9.36 36.148C10.752 36.964 12.324 37.372 14.076 37.372C15.9 37.372 17.46 36.976 18.756 36.184C20.076 35.368 21.084 34.204 21.78 32.692H25.704C24.768 35.092 23.28 36.952 21.24 38.272C19.2 39.568 16.812 40.216 14.076 40.216C11.748 40.216 9.624 39.676 7.704 38.596C5.808 37.492 4.308 35.968 3.204 34.024C2.1 32.08 1.548 29.884 1.548 27.436ZM39.1846 40.324C37.3366 40.324 35.6566 39.904 34.1446 39.064C32.6566 38.224 31.4806 37.036 30.6166 35.5C29.7766 33.94 29.3566 32.14 29.3566 30.1C29.3566 28.084 29.7886 26.308 30.6526 24.772C31.5406 23.212 32.7406 22.024 34.2526 21.208C35.7646 20.368 37.4566 19.948 39.3286 19.948C41.2006 19.948 42.8926 20.368 44.4046 21.208C45.9166 22.024 47.1046 23.2 47.9686 24.736C48.8566 26.272 49.3006 28.06 49.3006 30.1C49.3006 32.14 48.8446 33.94 47.9326 35.5C47.0446 37.036 45.8326 38.224 44.2966 39.064C42.7606 39.904 41.0566 40.324 39.1846 40.324ZM39.1846 37.444C40.3606 37.444 41.4646 37.168 42.4966 36.616C43.5286 36.064 44.3566 35.236 44.9806 34.132C45.6286 33.028 45.9526 31.684 45.9526 30.1C45.9526 28.516 45.6406 27.172 45.0166 26.068C44.3926 24.964 43.5766 24.148 42.5686 23.62C41.5606 23.068 40.4686 22.792 39.2926 22.792C38.0926 22.792 36.9886 23.068 35.9806 23.62C34.9966 24.148 34.2046 24.964 33.6046 26.068C33.0046 27.172 32.7046 28.516 32.7046 30.1C32.7046 31.708 32.9926 33.064 33.5686 34.168C34.1686 35.272 34.9606 36.1 35.9446 36.652C36.9286 37.18 38.0086 37.444 39.1846 37.444ZM62.2119 40.324C60.3639 40.324 58.6839 39.904 57.1719 39.064C55.6839 38.224 54.5079 37.036 53.6439 35.5C52.8039 33.94 52.3839 32.14 52.3839 30.1C52.3839 28.084 52.8159 26.308 53.6799 24.772C54.5679 23.212 55.7679 22.024 57.2799 21.208C58.7919 20.368 60.4839 19.948 62.3559 19.948C64.2279 19.948 65.9199 20.368 67.4319 21.208C68.9439 22.024 70.1319 23.2 70.9959 24.736C71.8839 26.272 72.3279 28.06 72.3279 30.1C72.3279 32.14 71.8719 33.94 70.9599 35.5C70.0719 37.036 68.8599 38.224 67.3239 39.064C65.7879 39.904 64.0839 40.324 62.2119 40.324ZM62.2119 37.444C63.3879 37.444 64.4919 37.168 65.5239 36.616C66.5559 36.064 67.3839 35.236 68.0079 34.132C68.6559 33.028 68.9799 31.684 68.9799 30.1C68.9799 28.516 68.6679 27.172 68.0439 26.068C67.4199 24.964 66.6039 24.148 65.5959 23.62C64.5879 23.068 63.4959 22.792 62.3199 22.792C61.1199 22.792 60.0159 23.068 59.0079 23.62C58.0239 24.148 57.2319 24.964 56.6319 26.068C56.0319 27.172 55.7319 28.516 55.7319 30.1C55.7319 31.708 56.0199 33.064 56.5959 34.168C57.1959 35.272 57.9879 36.1 58.9719 36.652C59.9559 37.18 61.0359 37.444 62.2119 37.444ZM79.9113 13.36V40H76.6353V13.36H79.9113ZM88.7707 13.36V40H85.4947V13.36H88.7707ZM116.825 23.944C117.497 22.768 118.481 21.808 119.777 21.064C121.073 20.32 122.549 19.948 124.205 19.948C125.981 19.948 127.577 20.368 128.993 21.208C130.409 22.048 131.525 23.236 132.341 24.772C133.157 26.284 133.565 28.048 133.565 30.064C133.565 32.056 133.157 33.832 132.341 35.392C131.525 36.952 130.397 38.164 128.957 39.028C127.541 39.892 125.957 40.324 124.205 40.324C122.501 40.324 121.001 39.952 119.705 39.208C118.433 38.464 117.473 37.516 116.825 36.364V40H113.549V13.36H116.825V23.944ZM130.217 30.064C130.217 28.576 129.917 27.28 129.317 26.176C128.717 25.072 127.901 24.232 126.869 23.656C125.861 23.08 124.745 22.792 123.521 22.792C122.321 22.792 121.205 23.092 120.173 23.692C119.165 24.268 118.349 25.12 117.725 26.248C117.125 27.352 116.825 28.636 116.825 30.1C116.825 31.588 117.125 32.896 117.725 34.024C118.349 35.128 119.165 35.98 120.173 36.58C121.205 37.156 122.321 37.444 123.521 37.444C124.745 37.444 125.861 37.156 126.869 36.58C127.901 35.98 128.717 35.128 129.317 34.024C129.917 32.896 130.217 31.576 130.217 30.064Z" fill="white"/>
<path d="M138.921 40.216C138.297 40.216 137.769 40 137.337 39.568C136.905 39.136 136.689 38.608 136.689 37.984C136.689 37.36 136.905 36.832 137.337 36.4C137.769 35.968 138.297 35.752 138.921 35.752C139.521 35.752 140.025 35.968 140.433 36.4C140.865 36.832 141.081 37.36 141.081 37.984C141.081 38.608 140.865 39.136 140.433 39.568C140.025 40 139.521 40.216 138.921 40.216Z" fill="#39DEDB"/>
<path d="M3.204 20.848L3.42139 20.9715L3.42204 20.9703L3.204 20.848ZM7.704 16.24L7.57938 16.0233L7.5782 16.024L7.704 16.24ZM21.24 16.564L21.3758 16.3541L21.3758 16.3541L21.24 16.564ZM25.704 22.18V22.43H26.0685L25.9372 22.0899L25.704 22.18ZM21.78 22.18L21.5529 22.2845L21.6199 22.43H21.78V22.18ZM18.756 18.688L18.6228 18.8996L18.6245 18.9006L18.756 18.688ZM9.36 18.688L9.48643 18.9037L9.48643 18.9037L9.36 18.688ZM6.084 22.18L6.30469 22.2975L6.30546 22.296L6.084 22.18ZM6.084 32.692L5.86254 32.808L5.86331 32.8095L6.084 32.692ZM9.36 36.148L9.48643 35.9323L9.48643 35.9323L9.36 36.148ZM18.756 36.184L18.8864 36.3973L18.8875 36.3966L18.756 36.184ZM21.78 32.692V32.442H21.6199L21.5529 32.5875L21.78 32.692ZM25.704 32.692L25.9369 32.7828L26.0698 32.442H25.704V32.692ZM21.24 38.272L21.3741 38.483L21.3758 38.4819L21.24 38.272ZM7.704 38.596L7.57819 38.8121L7.58144 38.8139L7.704 38.596ZM3.204 34.024L3.42139 33.9005L3.204 34.024ZM1.798 27.436C1.798 25.0271 2.34076 22.8743 3.42139 20.9715L2.98661 20.7245C1.85924 22.7097 1.298 24.9489 1.298 27.436H1.798ZM3.42204 20.9703C4.50486 19.0401 5.97349 17.5369 7.8298 16.456L7.5782 16.024C5.64251 17.1511 4.11114 18.7199 2.98596 20.7257L3.42204 20.9703ZM7.82862 16.4567C9.70874 15.3757 11.7894 14.834 14.076 14.834V14.334C11.7066 14.334 9.53926 14.8963 7.57938 16.0233L7.82862 16.4567ZM14.076 14.834C16.7701 14.834 19.1096 15.4833 21.1042 16.7739L21.3758 16.3541C19.2904 15.0047 16.8539 14.334 14.076 14.334V14.834ZM21.1042 16.7739C23.0967 18.0632 24.5524 19.8917 25.4708 22.2701L25.9372 22.0899C24.9836 19.6203 23.4633 17.7048 21.3758 16.3541L21.1042 16.7739ZM25.704 21.93H21.78V22.43H25.704V21.93ZM22.0071 22.0755C21.2921 20.5222 20.2523 19.3191 18.8875 18.4754L18.6245 18.9006C19.8997 19.6889 20.8759 20.8138 21.5529 22.2845L22.0071 22.0755ZM18.8892 18.4764C17.5463 17.6309 15.938 17.214 14.076 17.214V17.714C15.862 17.714 17.3737 18.1131 18.6228 18.8996L18.8892 18.4764ZM14.076 17.214C12.2835 17.214 10.6672 17.6319 9.23357 18.4723L9.48643 18.9037C10.8368 18.1121 12.3645 17.714 14.076 17.714V17.214ZM9.23357 18.4723C7.79881 19.3134 6.67495 20.513 5.86254 22.064L6.30546 22.296C7.07705 20.823 8.13719 19.6946 9.48643 18.9037L9.23357 18.4723ZM5.86331 22.0625C5.04863 23.5931 4.646 25.387 4.646 27.436H5.146C5.146 25.453 5.53537 23.7428 6.30469 22.2975L5.86331 22.0625ZM4.646 27.436C4.646 29.4616 5.04889 31.2547 5.86254 32.808L6.30546 32.576C5.53511 31.1053 5.146 29.3944 5.146 27.436H4.646ZM5.86331 32.8095C6.67603 34.3364 7.79984 35.5232 9.23357 36.3637L9.48643 35.9323C8.13616 35.1408 7.07597 34.0236 6.30469 32.5745L5.86331 32.8095ZM9.23357 36.3637C10.6672 37.2041 12.2835 37.622 14.076 37.622V37.122C12.3645 37.122 10.8368 36.7239 9.48643 35.9323L9.23357 36.3637ZM14.076 37.622C15.9367 37.622 17.5439 37.2177 18.8864 36.3973L18.6256 35.9707C17.3761 36.7343 15.8633 37.122 14.076 37.122V37.622ZM18.8875 36.3966C20.2523 35.5529 21.2921 34.3498 22.0071 32.7965L21.5529 32.5875C20.8759 34.0582 19.8997 35.1831 18.6245 35.9714L18.8875 36.3966ZM21.78 32.942H25.704V32.442H21.78V32.942ZM25.4711 32.6012C24.5529 34.9554 23.0974 36.7724 21.1042 38.0621L21.3758 38.4819C23.4626 37.1316 24.9831 35.2286 25.9369 32.7828L25.4711 32.6012ZM21.1059 38.061C19.1111 39.3283 16.771 39.966 14.076 39.966V40.466C16.853 40.466 19.2889 39.8077 21.3741 38.483L21.1059 38.061ZM14.076 39.966C11.7884 39.966 9.707 39.4359 7.82657 38.3781L7.58144 38.8139C9.541 39.9161 11.7076 40.466 14.076 40.466V39.966ZM7.8298 38.38C5.97273 37.2986 4.50401 35.8069 3.42139 33.9005L2.98661 34.1475C4.11199 36.1291 5.64328 37.6854 7.5782 38.812L7.8298 38.38ZM3.42139 33.9005C2.34076 31.9977 1.798 29.8449 1.798 27.436H1.298C1.298 29.9231 1.85924 32.1623 2.98661 34.1475L3.42139 33.9005ZM34.1446 39.064L34.0217 39.2817L34.0232 39.2825L34.1446 39.064ZM30.6166 35.5L30.3964 35.6185L30.3987 35.6226L30.6166 35.5ZM30.6526 24.772L30.4353 24.6483L30.4347 24.6494L30.6526 24.772ZM34.2526 21.208L34.3713 21.428L34.374 21.4265L34.2526 21.208ZM44.4046 21.208L44.2832 21.4266L44.2859 21.428L44.4046 21.208ZM47.9686 24.736L47.7507 24.8586L47.7522 24.8611L47.9686 24.736ZM47.9326 35.5L47.7168 35.3738L47.7162 35.3749L47.9326 35.5ZM44.2966 39.064L44.4165 39.2833L44.4165 39.2833L44.2966 39.064ZM44.9806 34.132L44.765 34.0054L44.763 34.009L44.9806 34.132ZM42.5686 23.62L42.4485 23.8393L42.4526 23.8415L42.5686 23.62ZM35.9806 23.62L36.0988 23.8403L36.1007 23.8393L35.9806 23.62ZM33.6046 26.068L33.8243 26.1874L33.8243 26.1874L33.6046 26.068ZM33.5686 34.168L33.3469 34.2837L33.3489 34.2874L33.5686 34.168ZM35.9446 36.652L35.8223 36.8701L35.8264 36.8723L35.9446 36.652ZM39.1846 40.074C37.3761 40.074 35.7383 39.6634 34.266 38.8455L34.0232 39.2825C35.5749 40.1446 37.2971 40.574 39.1846 40.574V40.074ZM34.2675 38.8463C32.8205 38.0295 31.6768 36.875 30.8345 35.3774L30.3987 35.6226C31.2843 37.197 32.4926 38.4185 34.0217 39.2817L34.2675 38.8463ZM30.8367 35.3815C30.0191 33.8631 29.6066 32.1049 29.6066 30.1H29.1066C29.1066 32.1751 29.5341 34.0169 30.3965 35.6185L30.8367 35.3815ZM29.6066 30.1C29.6066 28.1207 30.0304 26.388 30.8705 24.8946L30.4347 24.6494C29.5468 26.228 29.1066 28.0473 29.1066 30.1H29.6066ZM30.8699 24.8957C31.7358 23.3745 32.9024 22.2207 34.3713 21.428L34.1339 20.988C32.5787 21.8273 31.3454 23.0495 30.4353 24.6483L30.8699 24.8957ZM34.374 21.4265C35.8458 20.6088 37.4955 20.198 39.3286 20.198V19.698C37.4177 19.698 35.6833 20.1271 34.1312 20.9895L34.374 21.4265ZM39.3286 20.198C41.1617 20.198 42.8113 20.6088 44.2832 21.4265L44.526 20.9895C42.9738 20.1271 41.2395 19.698 39.3286 19.698V20.198ZM44.2859 21.428C45.7551 22.221 46.9092 23.3626 47.7507 24.8586L48.1865 24.6134C47.2999 23.0374 46.078 21.827 44.5233 20.988L44.2859 21.428ZM47.7522 24.8611C48.6151 26.3537 49.0506 28.0973 49.0506 30.1H49.5506C49.5506 28.0227 49.0981 26.1903 48.185 24.6109L47.7522 24.8611ZM49.0506 30.1C49.0506 32.1015 48.6036 33.8568 47.7168 35.3738L48.1484 35.6262C49.0856 34.0231 49.5506 32.1785 49.5506 30.1H49.0506ZM47.7162 35.3749C46.8508 36.8718 45.6719 38.0269 44.1766 38.8447L44.4165 39.2833C45.9933 38.4211 47.2384 37.2002 48.149 35.6251L47.7162 35.3749ZM44.1766 38.8447C42.68 39.6632 41.0177 40.074 39.1846 40.074V40.574C41.0955 40.574 42.8412 40.1448 44.4165 39.2833L44.1766 38.8447ZM39.1846 37.694C40.4015 37.694 41.5461 37.4079 42.6145 36.8364L42.3787 36.3956C41.3831 36.9281 40.3197 37.194 39.1846 37.194V37.694ZM42.6145 36.8364C43.6918 36.2602 44.5529 35.3967 45.1982 34.255L44.763 34.009C44.1603 35.0753 43.3654 35.8678 42.3787 36.3956L42.6145 36.8364ZM45.1962 34.2585C45.8715 33.108 46.2026 31.718 46.2026 30.1H45.7026C45.7026 31.65 45.3857 32.948 44.765 34.0054L45.1962 34.2585ZM46.2026 30.1C46.2026 28.4835 45.8841 27.0948 45.2342 25.945L44.799 26.191C45.3971 27.2492 45.7026 28.5485 45.7026 30.1H46.2026ZM45.2342 25.945C44.5893 24.804 43.74 23.9514 42.6846 23.3985L42.4526 23.8415C43.4132 24.3446 44.1958 25.124 44.799 26.191L45.2342 25.945ZM42.6887 23.4007C41.643 22.8281 40.5095 22.542 39.2926 22.542V23.042C40.4276 23.042 41.4782 23.3079 42.4485 23.8393L42.6887 23.4007ZM39.2926 22.542C38.0525 22.542 36.907 22.8277 35.8605 23.4007L36.1007 23.8393C37.0702 23.3083 38.1326 23.042 39.2926 23.042V22.542ZM35.8624 23.3997C34.8302 23.9536 34.0052 24.8074 33.3849 25.9486L33.8243 26.1874C34.404 25.1206 35.163 24.3424 36.0988 23.8403L35.8624 23.3997ZM33.3849 25.9486C32.7605 27.0976 32.4546 28.485 32.4546 30.1H32.9546C32.9546 28.547 33.2487 27.2464 33.8243 26.1874L33.3849 25.9486ZM32.4546 30.1C32.4546 31.7369 32.7477 33.1351 33.3469 34.2836L33.7902 34.0524C33.2375 32.9929 32.9546 31.6791 32.9546 30.1H32.4546ZM33.3489 34.2874C33.9688 35.4279 34.7926 36.2924 35.8223 36.87L36.0669 36.434C35.1286 35.9076 34.3684 35.1161 33.7883 34.0486L33.3489 34.2874ZM35.8264 36.8723C36.8487 37.4208 37.9696 37.694 39.1846 37.694V37.194C38.0476 37.194 37.0085 36.9392 36.0628 36.4317L35.8264 36.8723ZM57.1719 39.064L57.049 39.2817L57.0505 39.2825L57.1719 39.064ZM53.6439 35.5L53.4238 35.6185L53.426 35.6226L53.6439 35.5ZM53.6799 24.772L53.4627 24.6483L53.462 24.6494L53.6799 24.772ZM57.2799 21.208L57.3987 21.428L57.4013 21.4265L57.2799 21.208ZM67.4319 21.208L67.3105 21.4266L67.3132 21.428L67.4319 21.208ZM70.9959 24.736L70.778 24.8586L70.7795 24.8611L70.9959 24.736ZM70.9599 35.5L70.7441 35.3738L70.7435 35.3749L70.9599 35.5ZM67.3239 39.064L67.4439 39.2833L67.4439 39.2833L67.3239 39.064ZM68.0079 34.132L67.7923 34.0054L67.7903 34.009L68.0079 34.132ZM65.5959 23.62L65.4758 23.8393L65.4799 23.8415L65.5959 23.62ZM59.0079 23.62L59.1261 23.8403L59.128 23.8393L59.0079 23.62ZM56.6319 26.068L56.8516 26.1874L56.8516 26.1874L56.6319 26.068ZM56.5959 34.168L56.3743 34.2837L56.3763 34.2874L56.5959 34.168ZM58.9719 36.652L58.8496 36.8701L58.8537 36.8723L58.9719 36.652ZM62.2119 40.074C60.4034 40.074 58.7657 39.6634 57.2933 38.8455L57.0505 39.2825C58.6022 40.1446 60.3245 40.574 62.2119 40.574V40.074ZM57.2948 38.8463C55.8479 38.0295 54.7042 36.875 53.8618 35.3774L53.426 35.6226C54.3117 37.197 55.52 38.4185 57.049 39.2817L57.2948 38.8463ZM53.8641 35.3815C53.0465 33.8631 52.6339 32.1049 52.6339 30.1H52.1339C52.1339 32.1751 52.5614 34.0169 53.4238 35.6185L53.8641 35.3815ZM52.6339 30.1C52.6339 28.1207 53.0578 26.388 53.8978 24.8946L53.462 24.6494C52.5741 26.228 52.1339 28.0473 52.1339 30.1H52.6339ZM53.8972 24.8957C54.7631 23.3745 55.9298 22.2207 57.3987 21.428L57.1612 20.988C55.6061 21.8273 54.3728 23.0495 53.4627 24.6483L53.8972 24.8957ZM57.4013 21.4265C58.8732 20.6088 60.5228 20.198 62.3559 20.198V19.698C60.445 19.698 58.7107 20.1271 57.1585 20.9895L57.4013 21.4265ZM62.3559 20.198C64.189 20.198 65.8387 20.6088 67.3105 21.4265L67.5533 20.9895C66.0012 20.1271 64.2668 19.698 62.3559 19.698V20.198ZM67.3132 21.428C68.7825 22.221 69.9366 23.3626 70.778 24.8586L71.2138 24.6134C70.3273 23.0374 69.1054 21.827 67.5507 20.988L67.3132 21.428ZM70.7795 24.8611C71.6424 26.3537 72.0779 28.0973 72.0779 30.1H72.5779C72.5779 28.0227 72.1255 26.1903 71.2124 24.6109L70.7795 24.8611ZM72.0779 30.1C72.0779 32.1015 71.631 33.8568 70.7441 35.3738L71.1758 35.6262C72.1129 34.0231 72.5779 32.1785 72.5779 30.1H72.0779ZM70.7435 35.3749C69.8781 36.8718 68.6992 38.0269 67.204 38.8447L67.4439 39.2833C69.0206 38.4211 70.2658 37.2002 71.1764 35.6251L70.7435 35.3749ZM67.204 38.8447C65.7073 39.6632 64.045 40.074 62.2119 40.074V40.574C64.1229 40.574 65.8686 40.1448 67.4439 39.2833L67.204 38.8447ZM62.2119 37.694C63.4289 37.694 64.5734 37.4079 65.6419 36.8364L65.406 36.3956C64.4105 36.9281 63.347 37.194 62.2119 37.194V37.694ZM65.6419 36.8364C66.7192 36.2602 67.5803 35.3967 68.2256 34.255L67.7903 34.009C67.1876 35.0753 66.3927 35.8678 65.406 36.3956L65.6419 36.8364ZM68.2235 34.2585C68.8988 33.108 69.2299 31.718 69.2299 30.1H68.7299C68.7299 31.65 68.413 32.948 67.7923 34.0054L68.2235 34.2585ZM69.2299 30.1C69.2299 28.4835 68.9115 27.0948 68.2616 25.945L67.8263 26.191C68.4244 27.2492 68.7299 28.5485 68.7299 30.1H69.2299ZM68.2616 25.945C67.6167 24.804 66.7674 23.9514 65.7119 23.3985L65.4799 23.8415C66.4405 24.3446 67.2232 25.124 67.8263 26.191L68.2616 25.945ZM65.716 23.4007C64.6703 22.8281 63.5369 22.542 62.3199 22.542V23.042C63.455 23.042 64.5056 23.3079 65.4759 23.8393L65.716 23.4007ZM62.3199 22.542C61.0799 22.542 59.9343 22.8277 58.8879 23.4007L59.128 23.8393C60.0976 23.3083 61.16 23.042 62.3199 23.042V22.542ZM58.8897 23.3997C57.8576 23.9536 57.0325 24.8074 56.4123 25.9486L56.8516 26.1874C57.4313 25.1206 58.1903 24.3424 59.1261 23.8403L58.8897 23.3997ZM56.4123 25.9486C55.7878 27.0976 55.4819 28.485 55.4819 30.1H55.9819C55.9819 28.547 56.276 27.2464 56.8516 26.1874L56.4123 25.9486ZM55.4819 30.1C55.4819 31.7369 55.775 33.1351 56.3743 34.2836L56.8176 34.0524C56.2648 32.9929 55.9819 31.6791 55.9819 30.1H55.4819ZM56.3763 34.2874C56.9961 35.4279 57.82 36.2924 58.8496 36.87L59.0943 36.434C58.1559 35.9076 57.3957 35.1161 56.8156 34.0486L56.3763 34.2874ZM58.8537 36.8723C59.876 37.4208 60.997 37.694 62.2119 37.694V37.194C61.0749 37.194 60.0359 36.9392 59.0901 36.4317L58.8537 36.8723ZM79.9113 13.36H80.1613V13.11H79.9113V13.36ZM79.9113 40V40.25H80.1613V40H79.9113ZM76.6353 40H76.3853V40.25H76.6353V40ZM76.6353 13.36V13.11H76.3853V13.36H76.6353ZM79.6613 13.36V40H80.1613V13.36H79.6613ZM79.9113 39.75H76.6353V40.25H79.9113V39.75ZM76.8853 40V13.36H76.3853V40H76.8853ZM76.6353 13.61H79.9113V13.11H76.6353V13.61ZM88.7707 13.36H89.0207V13.11H88.7707V13.36ZM88.7707 40V40.25H89.0207V40H88.7707ZM85.4947 40H85.2447V40.25H85.4947V40ZM85.4947 13.36V13.11H85.2447V13.36H85.4947ZM88.5207 13.36V40H89.0207V13.36H88.5207ZM88.7707 39.75H85.4947V40.25H88.7707V39.75ZM85.7447 40V13.36H85.2447V40H85.7447ZM85.4947 13.61H88.7707V13.11H85.4947V13.61ZM116.825 23.944H116.575V24.8854L117.042 24.068L116.825 23.944ZM119.777 21.064L119.902 21.2808L119.902 21.2808L119.777 21.064ZM128.993 21.208L129.121 20.993L129.121 20.993L128.993 21.208ZM132.341 24.772L132.121 24.8893L132.121 24.8907L132.341 24.772ZM132.341 35.392L132.563 35.5079L132.563 35.5079L132.341 35.392ZM128.957 39.028L128.829 38.8136L128.827 38.8146L128.957 39.028ZM119.705 39.208L119.579 39.4238L119.581 39.4248L119.705 39.208ZM116.825 36.364L117.043 36.2414L116.575 35.4096V36.364H116.825ZM116.825 40V40.25H117.075V40H116.825ZM113.549 40H113.299V40.25H113.549V40ZM113.549 13.36V13.11H113.299V13.36H113.549ZM116.825 13.36H117.075V13.11H116.825V13.36ZM129.317 26.176L129.537 26.0566L129.537 26.0566L129.317 26.176ZM126.869 23.656L126.745 23.8731L126.748 23.8743L126.869 23.656ZM120.173 23.692L120.297 23.9091L120.299 23.9081L120.173 23.692ZM117.725 26.248L117.507 26.127L117.506 26.1286L117.725 26.248ZM117.725 34.024L117.505 34.1414L117.508 34.147L117.725 34.024ZM120.173 36.58L120.045 36.7949L120.052 36.7983L120.173 36.58ZM126.869 36.58L126.993 36.7971L126.995 36.7961L126.869 36.58ZM129.317 34.024L129.537 34.1434L129.538 34.1414L129.317 34.024ZM117.042 24.068C117.69 22.9345 118.64 22.005 119.902 21.2808L119.653 20.8472C118.322 21.611 117.305 22.6015 116.608 23.82L117.042 24.068ZM119.902 21.2808C121.156 20.5608 122.588 20.198 124.205 20.198V19.698C122.511 19.698 120.991 20.0792 119.653 20.8472L119.902 21.2808ZM124.205 20.198C125.94 20.198 127.491 20.6077 128.866 21.423L129.121 20.993C127.663 20.1283 126.023 19.698 124.205 19.698V20.198ZM128.866 21.423C130.24 22.2383 131.325 23.3914 132.121 24.8893L132.562 24.6547C131.726 23.0806 130.579 21.8577 129.121 20.993L128.866 21.423ZM132.121 24.8907C132.914 26.3604 133.315 28.0822 133.315 30.064H133.815C133.815 28.0137 133.4 26.2076 132.561 24.6533L132.121 24.8907ZM133.315 30.064C133.315 32.021 132.915 33.7564 132.12 35.2761L132.563 35.5079C133.4 33.9076 133.815 32.091 133.815 30.064H133.315ZM132.12 35.2761C131.324 36.7974 130.227 37.9745 128.829 38.8136L129.086 39.2424C130.567 38.3535 131.727 37.1066 132.563 35.5079L132.12 35.2761ZM128.827 38.8146C127.453 39.6533 125.914 40.074 124.205 40.074V40.574C126.001 40.574 127.63 40.1307 129.088 39.2414L128.827 38.8146ZM124.205 40.074C122.539 40.074 121.083 39.7105 119.83 38.9912L119.581 39.4248C120.92 40.1935 122.464 40.574 124.205 40.574V40.074ZM119.832 38.9922C118.593 38.268 117.667 37.3505 117.043 36.2414L116.607 36.4866C117.28 37.6815 118.273 38.66 119.579 39.4238L119.832 38.9922ZM116.575 36.364V40H117.075V36.364H116.575ZM116.825 39.75H113.549V40.25H116.825V39.75ZM113.799 40V13.36H113.299V40H113.799ZM113.549 13.61H116.825V13.11H113.549V13.61ZM116.575 13.36V23.944H117.075V13.36H116.575ZM130.467 30.064C130.467 28.542 130.16 27.2035 129.537 26.0566L129.098 26.2954C129.674 27.3565 129.967 28.61 129.967 30.064H130.467ZM129.537 26.0566C128.916 24.9138 128.067 24.0382 126.991 23.4377L126.748 23.8743C127.736 24.4258 128.519 25.2302 129.098 26.2954L129.537 26.0566ZM126.993 23.4389C125.946 22.8402 124.786 22.542 123.521 22.542V23.042C124.704 23.042 125.777 23.3198 126.745 23.8731L126.993 23.4389ZM123.521 22.542C122.277 22.542 121.118 22.8536 120.048 23.4759L120.299 23.9081C121.293 23.3304 122.365 23.042 123.521 23.042V22.542ZM120.049 23.4749C118.997 24.0761 118.15 24.9634 117.507 26.127L117.944 26.369C118.548 25.2766 119.333 24.4599 120.297 23.9091L120.049 23.4749ZM117.506 26.1286C116.883 27.2749 116.575 28.6012 116.575 30.1H117.075C117.075 28.6708 117.368 27.4291 117.945 26.3674L117.506 26.1286ZM116.575 30.1C116.575 31.6222 116.882 32.9717 117.505 34.1414L117.946 33.9066C117.368 32.8203 117.075 31.5538 117.075 30.1H116.575ZM117.508 34.147C118.151 35.2857 118.997 36.1708 120.045 36.7948L120.301 36.3652C119.334 35.7892 118.547 34.9703 117.943 33.901L117.508 34.147ZM120.052 36.7983C121.121 37.3954 122.279 37.694 123.521 37.694V37.194C122.363 37.194 121.289 36.9166 120.295 36.3617L120.052 36.7983ZM123.521 37.694C124.786 37.694 125.946 37.3958 126.993 36.7971L126.745 36.3629C125.777 36.9162 124.704 37.194 123.521 37.194V37.694ZM126.995 36.7961C128.069 36.1719 128.916 35.2854 129.537 34.1434L129.098 33.9046C128.518 34.9706 127.734 35.7881 126.744 36.3639L126.995 36.7961ZM129.538 34.1414C130.161 32.9712 130.467 31.6094 130.467 30.064H129.967C129.967 31.5426 129.674 32.8208 129.097 33.9066L129.538 34.1414ZM137.337 39.568L137.161 39.7448L137.161 39.7448L137.337 39.568ZM137.337 36.4L137.514 36.5768L137.514 36.5768L137.337 36.4ZM140.433 36.4L140.252 36.5717L140.257 36.5768L140.433 36.4ZM140.433 39.568L140.257 39.3912L140.252 39.3963L140.433 39.568ZM138.921 39.966C138.362 39.966 137.898 39.7752 137.514 39.3912L137.161 39.7448C137.641 40.2248 138.233 40.466 138.921 40.466V39.966ZM137.514 39.3912C137.13 39.0072 136.939 38.5433 136.939 37.984H136.439C136.439 38.6727 136.681 39.2648 137.161 39.7448L137.514 39.3912ZM136.939 37.984C136.939 37.4247 137.13 36.9608 137.514 36.5768L137.161 36.2232C136.681 36.7032 136.439 37.2953 136.439 37.984H136.939ZM137.514 36.5768C137.898 36.1928 138.362 36.002 138.921 36.002V35.502C138.233 35.502 137.641 35.7432 137.161 36.2232L137.514 36.5768ZM138.921 36.002C139.453 36.002 139.891 36.1902 140.252 36.5717L140.615 36.2283C140.159 35.7458 139.589 35.502 138.921 35.502V36.002ZM140.257 36.5768C140.641 36.9608 140.831 37.4247 140.831 37.984H141.331C141.331 37.2953 141.09 36.7032 140.61 36.2232L140.257 36.5768ZM140.831 37.984C140.831 38.5433 140.641 39.0072 140.257 39.3912L140.61 39.7448C141.09 39.2648 141.331 38.6727 141.331 37.984H140.831ZM140.252 39.3963C139.891 39.7778 139.453 39.966 138.921 39.966V40.466C139.589 40.466 140.159 40.2222 140.615 39.7397L140.252 39.3963Z" fill="black"/>
<path d="M145.774 35.032C145.774 34.024 145.978 33.142 146.386 32.386C146.794 31.618 147.352 31.024 148.06 30.604C148.78 30.184 149.584 29.974 150.472 29.974C151.24 29.974 151.954 30.154 152.614 30.514C153.274 30.862 153.778 31.324 154.126 31.9V26.68H155.782V40H154.126V38.146C153.802 38.734 153.322 39.22 152.686 39.604C152.05 39.976 151.306 40.162 150.454 40.162C149.578 40.162 148.78 39.946 148.06 39.514C147.352 39.082 146.794 38.476 146.386 37.696C145.978 36.916 145.774 36.028 145.774 35.032ZM154.126 35.05C154.126 34.306 153.976 33.658 153.676 33.106C153.376 32.554 152.968 32.134 152.452 31.846C151.948 31.546 151.39 31.396 150.778 31.396C150.166 31.396 149.608 31.54 149.104 31.828C148.6 32.116 148.198 32.536 147.898 33.088C147.598 33.64 147.448 34.288 147.448 35.032C147.448 35.788 147.598 36.448 147.898 37.012C148.198 37.564 148.6 37.99 149.104 38.29C149.608 38.578 150.166 38.722 150.778 38.722C151.39 38.722 151.948 38.578 152.452 38.29C152.968 37.99 153.376 37.564 153.676 37.012C153.976 36.448 154.126 35.794 154.126 35.05ZM167.55 34.69C167.55 35.002 167.532 35.332 167.496 35.68H159.612C159.672 36.652 160.002 37.414 160.602 37.966C161.214 38.506 161.952 38.776 162.816 38.776C163.524 38.776 164.112 38.614 164.58 38.29C165.06 37.954 165.396 37.51 165.588 36.958H167.352C167.088 37.906 166.56 38.68 165.768 39.28C164.976 39.868 163.992 40.162 162.816 40.162C161.88 40.162 161.04 39.952 160.296 39.532C159.564 39.112 158.988 38.518 158.568 37.75C158.148 36.97 157.938 36.07 157.938 35.05C157.938 34.03 158.142 33.136 158.55 32.368C158.958 31.6 159.528 31.012 160.26 30.604C161.004 30.184 161.856 29.974 162.816 29.974C163.752 29.974 164.58 30.178 165.3 30.586C166.02 30.994 166.572 31.558 166.956 32.278C167.352 32.986 167.55 33.79 167.55 34.69ZM165.858 34.348C165.858 33.724 165.72 33.19 165.444 32.746C165.168 32.29 164.79 31.948 164.31 31.72C163.842 31.48 163.32 31.36 162.744 31.36C161.916 31.36 161.208 31.624 160.62 32.152C160.044 32.68 159.714 33.412 159.63 34.348H165.858ZM173.384 38.488L176.444 30.136H178.19L174.32 40H172.412L168.542 30.136H170.306L173.384 38.488Z" fill="white"/>
<path d="M146.386 32.386L146.606 32.5047L146.607 32.5033L146.386 32.386ZM148.06 30.604L147.934 30.388L147.932 30.389L148.06 30.604ZM152.614 30.514L152.494 30.7335L152.497 30.7351L152.614 30.514ZM154.126 31.9L153.912 32.0293L154.376 32.7972V31.9H154.126ZM154.126 26.68V26.43H153.876V26.68H154.126ZM155.782 26.68H156.032V26.43H155.782V26.68ZM155.782 40V40.25H156.032V40H155.782ZM154.126 40H153.876V40.25H154.126V40ZM154.126 38.146H154.376L153.907 38.0253L154.126 38.146ZM152.686 39.604L152.812 39.8198L152.815 39.818L152.686 39.604ZM148.06 39.514L147.93 39.7274L147.931 39.7284L148.06 39.514ZM146.386 37.696L146.608 37.5801L146.608 37.5801L146.386 37.696ZM152.452 31.846L152.324 32.0609L152.33 32.0643L152.452 31.846ZM149.104 31.828L148.98 31.6109L148.98 31.6109L149.104 31.828ZM147.898 33.088L148.118 33.2074L148.118 33.2074L147.898 33.088ZM147.898 37.012L147.677 37.1294L147.678 37.1314L147.898 37.012ZM149.104 38.29L148.976 38.5049L148.98 38.5071L149.104 38.29ZM152.452 38.29L152.576 38.5071L152.578 38.5061L152.452 38.29ZM153.676 37.012L153.896 37.1314L153.897 37.1294L153.676 37.012ZM146.024 35.032C146.024 34.0582 146.221 33.2184 146.606 32.5047L146.166 32.2673C145.735 33.0656 145.524 33.9898 145.524 35.032H146.024ZM146.607 32.5033C146.995 31.7734 147.521 31.2143 148.188 30.819L147.932 30.389C147.183 30.8337 146.593 31.4626 146.165 32.2687L146.607 32.5033ZM148.186 30.8199C148.865 30.4237 149.625 30.224 150.472 30.224V29.724C149.543 29.724 148.695 29.9443 147.934 30.3881L148.186 30.8199ZM150.472 30.224C151.199 30.224 151.872 30.3939 152.494 30.7335L152.734 30.2945C152.036 29.914 151.281 29.724 150.472 29.724V30.224ZM152.497 30.7351C153.122 31.0643 153.59 31.4963 153.912 32.0293L154.34 31.7707C153.966 31.1517 153.426 30.6597 152.731 30.2929L152.497 30.7351ZM154.376 31.9V26.68H153.876V31.9H154.376ZM154.126 26.93H155.782V26.43H154.126V26.93ZM155.532 26.68V40H156.032V26.68H155.532ZM155.782 39.75H154.126V40.25H155.782V39.75ZM154.376 40V38.146H153.876V40H154.376ZM153.907 38.0253C153.606 38.5709 153.159 39.0262 152.557 39.39L152.815 39.818C153.485 39.4138 153.998 38.8971 154.345 38.2667L153.907 38.0253ZM152.56 39.3882C151.968 39.7345 151.269 39.912 150.454 39.912V40.412C151.343 40.412 152.132 40.2175 152.812 39.8198L152.56 39.3882ZM150.454 39.912C149.621 39.912 148.868 39.7073 148.189 39.2996L147.931 39.7284C148.692 40.1847 149.535 40.412 150.454 40.412V39.912ZM148.19 39.3006C147.523 38.8937 146.996 38.3225 146.608 37.5801L146.164 37.8119C146.592 38.6295 147.181 39.2703 147.93 39.7274L148.19 39.3006ZM146.608 37.5801C146.221 36.8404 146.024 35.993 146.024 35.032H145.524C145.524 36.063 145.735 36.9916 146.164 37.8119L146.608 37.5801ZM154.376 35.05C154.376 34.272 154.219 33.5815 153.896 32.9866L153.456 33.2254C153.733 33.7345 153.876 34.34 153.876 35.05H154.376ZM153.896 32.9866C153.575 32.3958 153.134 31.9402 152.574 31.6277L152.33 32.0643C152.802 32.3278 153.177 32.7122 153.456 33.2254L153.896 32.9866ZM152.58 31.6312C152.035 31.3071 151.433 31.146 150.778 31.146V31.646C151.347 31.646 151.861 31.7849 152.324 32.0608L152.58 31.6312ZM150.778 31.146C150.125 31.146 149.524 31.3002 148.98 31.6109L149.228 32.0451C149.692 31.7798 150.207 31.646 150.778 31.646V31.146ZM148.98 31.6109C148.432 31.9239 147.999 32.3793 147.678 32.9686L148.118 33.2074C148.397 32.6927 148.768 32.3081 149.228 32.0451L148.98 31.6109ZM147.678 32.9686C147.355 33.5635 147.198 34.254 147.198 35.032H147.698C147.698 34.322 147.841 33.7165 148.118 33.2074L147.678 32.9686ZM147.198 35.032C147.198 35.8214 147.355 36.5232 147.677 37.1294L148.119 36.8946C147.841 36.3728 147.698 35.7546 147.698 35.032H147.198ZM147.678 37.1314C147.998 37.72 148.431 38.1802 148.976 38.5048L149.232 38.0752C148.769 37.7998 148.398 37.408 148.118 36.8926L147.678 37.1314ZM148.98 38.5071C149.524 38.8178 150.125 38.972 150.778 38.972V38.472C150.207 38.472 149.692 38.3382 149.228 38.0729L148.98 38.5071ZM150.778 38.972C151.431 38.972 152.032 38.8178 152.576 38.5071L152.328 38.0729C151.864 38.3382 151.349 38.472 150.778 38.472V38.972ZM152.578 38.5061C153.135 38.1819 153.575 37.7214 153.896 37.1314L153.456 36.8926C153.177 37.4066 152.801 37.7981 152.326 38.0739L152.578 38.5061ZM153.897 37.1294C154.219 36.5237 154.376 35.8282 154.376 35.05H153.876C153.876 35.7598 153.733 36.3723 153.455 36.8946L153.897 37.1294ZM167.496 35.68V35.93H167.722L167.745 35.7057L167.496 35.68ZM159.612 35.68V35.43H159.346L159.363 35.6954L159.612 35.68ZM160.602 37.966L160.433 38.15L160.437 38.1535L160.602 37.966ZM164.58 38.29L164.722 38.4956L164.723 38.4948L164.58 38.29ZM165.588 36.958V36.708H165.41L165.352 36.8759L165.588 36.958ZM167.352 36.958L167.593 37.0251L167.681 36.708H167.352V36.958ZM165.768 39.28L165.917 39.4807L165.919 39.4793L165.768 39.28ZM160.296 39.532L160.172 39.7488L160.173 39.7497L160.296 39.532ZM158.568 37.75L158.348 37.8685L158.349 37.87L158.568 37.75ZM158.55 32.368L158.771 32.4853L158.771 32.4853L158.55 32.368ZM160.26 30.604L160.382 30.8224L160.383 30.8217L160.26 30.604ZM165.3 30.586L165.177 30.8035L165.177 30.8035L165.3 30.586ZM166.956 32.278L166.735 32.3957L166.738 32.4L166.956 32.278ZM165.858 34.348V34.598H166.108V34.348H165.858ZM165.444 32.746L165.23 32.8755L165.232 32.878L165.444 32.746ZM164.31 31.72L164.196 31.9426L164.203 31.9458L164.31 31.72ZM160.62 32.152L160.453 31.966L160.451 31.9677L160.62 32.152ZM159.63 34.348L159.381 34.3257L159.357 34.598H159.63V34.348ZM167.3 34.69C167.3 34.9925 167.283 35.3138 167.247 35.6543L167.745 35.7057C167.782 35.3502 167.8 35.0115 167.8 34.69H167.3ZM167.496 35.43H159.612V35.93H167.496V35.43ZM159.363 35.6954C159.426 36.7185 159.776 37.546 160.433 38.15L160.771 37.782C160.228 37.282 159.918 36.5855 159.862 35.6646L159.363 35.6954ZM160.437 38.1535C161.097 38.7363 161.895 39.026 162.816 39.026V38.526C162.009 38.526 161.331 38.2757 160.767 37.7785L160.437 38.1535ZM162.816 39.026C163.562 39.026 164.203 38.8549 164.722 38.4955L164.438 38.0845C164.021 38.3731 163.486 38.526 162.816 38.526V39.026ZM164.723 38.4948C165.246 38.1288 165.615 37.6419 165.824 37.0401L165.352 36.8759C165.177 37.3781 164.874 37.7792 164.437 38.0852L164.723 38.4948ZM165.588 37.208H167.352V36.708H165.588V37.208ZM167.111 36.8909C166.862 37.7857 166.366 38.5134 165.617 39.0807L165.919 39.4793C166.754 38.8466 167.314 38.0263 167.593 37.0251L167.111 36.8909ZM165.619 39.0793C164.878 39.6295 163.949 39.912 162.816 39.912V40.412C164.035 40.412 165.074 40.1065 165.917 39.4807L165.619 39.0793ZM162.816 39.912C161.919 39.912 161.122 39.7111 160.419 39.3143L160.173 39.7497C160.958 40.1929 161.841 40.412 162.816 40.412V39.912ZM160.42 39.3152C159.73 38.919 159.186 38.3592 158.787 37.63L158.349 37.87C158.79 38.6768 159.398 39.305 160.172 39.7488L160.42 39.3152ZM158.788 37.6315C158.391 36.8931 158.188 36.0349 158.188 35.05H157.688C157.688 36.1051 157.906 37.0469 158.348 37.8685L158.788 37.6315ZM158.188 35.05C158.188 34.0638 158.385 33.2114 158.771 32.4853L158.329 32.2507C157.899 33.0606 157.688 33.9962 157.688 35.05H158.188ZM158.771 32.4853C159.157 31.7581 159.693 31.206 160.382 30.8224L160.138 30.3856C159.363 30.818 158.759 31.4419 158.329 32.2507L158.771 32.4853ZM160.383 30.8217C161.085 30.4254 161.894 30.224 162.816 30.224V29.724C161.818 29.724 160.923 29.9426 160.137 30.3863L160.383 30.8217ZM162.816 30.224C163.715 30.224 164.499 30.4195 165.177 30.8035L165.423 30.3685C164.661 29.9365 163.79 29.724 162.816 29.724V30.224ZM165.177 30.8035C165.856 31.1885 166.374 31.7181 166.735 32.3956L167.177 32.1604C166.77 31.3979 166.184 30.7995 165.423 30.3685L165.177 30.8035ZM166.738 32.4C167.111 33.0668 167.3 33.828 167.3 34.69H167.8C167.8 33.752 167.593 32.9052 167.174 32.156L166.738 32.4ZM166.108 34.348C166.108 33.6865 165.961 33.1047 165.656 32.614L165.232 32.878C165.479 33.2753 165.608 33.7615 165.608 34.348H166.108ZM165.658 32.6165C165.357 32.1188 164.942 31.7432 164.417 31.4942L164.203 31.9458C164.638 32.1528 164.979 32.4612 165.23 32.8755L165.658 32.6165ZM164.424 31.4975C163.918 31.2378 163.356 31.11 162.744 31.11V31.61C163.284 31.61 163.767 31.7222 164.196 31.9425L164.424 31.4975ZM162.744 31.11C161.858 31.11 161.089 31.3947 160.453 31.966L160.787 32.338C161.327 31.8533 161.975 31.61 162.744 31.61V31.11ZM160.451 31.9677C159.82 32.546 159.469 33.3409 159.381 34.3257L159.879 34.3703C159.959 33.4831 160.268 32.814 160.789 32.3363L160.451 31.9677ZM159.63 34.598H165.858V34.098H159.63V34.598ZM173.384 38.488L173.15 38.5744L173.385 39.2128L173.619 38.574L173.384 38.488ZM176.444 30.136V29.886H176.27L176.209 30.05L176.444 30.136ZM178.19 30.136L178.423 30.2273L178.557 29.886H178.19V30.136ZM174.32 40V40.25H174.491L174.553 40.0913L174.32 40ZM172.412 40L172.179 40.0913L172.242 40.25H172.412V40ZM168.542 30.136V29.886H168.176L168.309 30.2273L168.542 30.136ZM170.306 30.136L170.541 30.0495L170.48 29.886H170.306V30.136ZM173.619 38.574L176.679 30.222L176.209 30.05L173.149 38.402L173.619 38.574ZM176.444 30.386H178.19V29.886H176.444V30.386ZM177.957 30.0447L174.087 39.9087L174.553 40.0913L178.423 30.2273L177.957 30.0447ZM174.32 39.75H172.412V40.25H174.32V39.75ZM172.645 39.9087L168.775 30.0447L168.309 30.2273L172.179 40.0913L172.645 39.9087ZM168.542 30.386H170.306V29.886H168.542V30.386ZM170.072 30.2224L173.15 38.5744L173.619 38.4016L170.541 30.0495L170.072 30.2224Z" fill="black"/>
<path fill-rule="evenodd" clip-rule="evenodd" d="M111.199 37.8906L105.5 28C106.847 33.2774 105.173 33.9041 100.921 35.4959C98.9693 36.2264 96.4749 37.1602 93.4805 38.8398L109.19 38.9453C110.883 38.9453 111.305 38.3125 111.199 37.8906Z" fill="#39DEDB"/>
<path d="M97.0235 17.5726C97.0301 18.0453 97.3659 18.5212 98.0663 18.5212H99.3828V22.2943L90.6605 37.9079C90.6134 38.0826 90.6284 38.2349 90.69 38.372C90.7575 38.522 90.8916 38.6769 91.1132 38.8214C91.5608 39.1132 92.3102 39.3254 93.3238 39.3672H109.028C110.041 39.3257 110.783 39.1117 111.224 38.8198C111.442 38.6754 111.573 38.5207 111.639 38.3711C111.699 38.2342 111.713 38.0822 111.666 37.9086L102.969 22.4334V18.5212H104.285C104.986 18.5212 105.321 18.0453 105.328 17.5726C105.331 17.3317 105.248 17.0992 105.086 16.9287C104.927 16.7621 104.671 16.6328 104.285 16.6328H103.5C103 16.6328 103.031 16 103.5 16H104.285C104.823 16 105.252 16.1858 105.544 16.492C105.832 16.7942 105.966 17.192 105.961 17.5814C105.95 18.3692 105.362 19.154 104.285 19.154H103.602V22.2678L112.252 37.6596L112.262 37.6918C112.361 38.0134 112.347 38.3324 112.219 38.6257C112.092 38.914 111.864 39.1548 111.573 39.3475C110.996 39.7294 110.121 39.9566 109.047 39.9997L109.041 40H93.3109L93.3045 39.9997C92.2308 39.9562 91.3502 39.7313 90.7677 39.3515C90.4738 39.1599 90.2426 38.9201 90.1129 38.6314C89.9808 38.3376 89.9648 38.0169 90.0641 37.6925L90.074 37.6603L98.75 22.1295V19.154H98.0663C96.9897 19.154 96.4017 18.3692 96.3907 17.5814C96.3853 17.192 96.5197 16.7942 96.808 16.492C97.1 16.1858 97.5283 16 98.0663 16H99C99.5 16 99.5 16.6328 99 16.6328H98.0663C97.6805 16.6328 97.4248 16.7621 97.2659 16.9287C97.1033 17.0992 97.0201 17.3317 97.0235 17.5726Z" fill="black" stroke="white" stroke-width="0.25"/>
</svg>
